<?xml version="1.0" encoding="UTF-8"?>
<svg id="Layer_2" data-name="Layer 2" xmlns="http://www.w3.org/2000/svg" viewBox="0 0 505.89 662.87">
  <defs>
    <style>
      .cls-1 {
        fill: #b3d61b;
      }

      .cls-2 {
        fill: #d8ee4c;
      }

      .cls-3 {
        fill: #f6feb3;
      }

      .cls-4 {
        fill: #a4c20c;
      }

      .cls-5 {
        fill: #e5f385;
      }

      .cls-6 {
        fill: #f6ffa5;
      }

      .cls-7 {
        fill: #abc21b;
      }
    </style>
  </defs>
  <g id="Whole_Fruit" data-name="Whole Fruit">
    <path id="Body" class="cls-1" d="M405.24,96.29s13.02-36-55.91-25.28c0,0-16.85,6.89-54.38,1.53s-53.62-3.53-53.62-3.53c0,0-127.15,8.89-130.21,164.38s177.7,173.87,177.7,173.87c0,0,110.3,9.19,144.77-143.23,0,0,4.6-21.45-3.83-58.98s5.08-56.68,5.08-56.68c0,0,13.3-45.19-29.59-52.09Z"/>
    <path id="Stem" class="cls-4" d="M402.61,78.92s28.93,14.56,70.29-40.08c1.05-.91,2.09-1.89,3.13-2.94,7.17-7.25,11.37-15.35,13.89-22.26.49-1.88,3.49-12.95,9.53-13.62,2.68-.29,5.1,1.55,5.79,2.38,3.53,4.3-5.85,22.36-61.96,82.38,0,0-12.49,8.31-11.86,27.13-1.35-2.12-3.2-4.51-5.72-6.8-7.59-6.89-16.41-8.42-20.46-8.84.5-1.52.97-3.59.97-6.05,0-5.51-2.4-9.56-3.6-11.32Z"/>
    <path id="Highlight" class="cls-3" d="M125.67,173.31s25.19-88.85,119.49-96.34c0,0-82.38,14.98-119.49,96.34Z"/>
    <path id="Highlight-2" data-name="Highlight" class="cls-3" d="M418.27,284.78s-15.06,91.12-107.92,109.15c13.05-3.31,30.65-9.59,48.51-22.15,41.53-29.21,55.3-71.86,59.41-86.99Z"/>
    <path id="Highlight-3" data-name="Highlight" class="cls-3" d="M407.54,301.99c-6.38,13-16.96,30.8-34.38,47.66-24.44,23.65-49.66,33.17-49.36,33.7.31.56,28.44-8.54,52.77-33.02,16.93-17.03,26.01-35.46,30.98-48.34Z"/>
  </g>
  <g id="Fruit_Cut_Into" data-name="Fruit Cut Into">
    <path id="Bergamot_Outside" data-name="Bergamot Outside" class="cls-7" d="M31.58,575.67s123.96,163.25,253.41,43,6.21-237.36,6.21-237.36L31.58,575.67Z"/>
    <path id="Bergamot_Inside" data-name="Bergamot Inside" class="cls-6" d="M27.62,328.37s-23.74,7.66-21.45,53.62c.62,12.47,1.2,18.73.15,39.43-.99,19.5-3.88,32.57-4.99,39.18-5.48,32.57,7.1,69.41,15.48,90.67,26.89,68.17,144.08,88.85,144.08,88.85,0,0,55.15,5.36,72-28.34,16.85-33.7,59.74-57.45,59.74-57.45,5.78-3.41,13.46-8.99,20.2-17.82,16.17-21.17,14.89-45.24,14.23-52.4.06-12.51-1.14-63.82-40.65-108.43-43-48.55-99.76-53.46-110.98-54.21,0,0-75.83,0-99.57-3.06s-48.26,9.96-48.26,9.96Z"/>
    <path id="Middle_Left" data-name="Middle Left" class="cls-2" d="M36.05,385.82s-9.96,3.06-10.72,35.23,0,58.14,0,58.14c0,0,1.53,54.46,55.15,96.59s103.4,33.7,103.4,33.7c0,0,55.91-18.38,32.17-47.49s-51.89-45.19-51.89-45.19c0,0-33.9-28.34-59.18-80.43s-62.45-59.15-68.94-50.55Z"/>
    <path id="Middle_Right" data-name="Middle Right" class="cls-2" d="M104.56,351.35c-3.9,2.7-8.6,6.96-10.31,13.19-3.96,14.47,8.17,32.12,29.2,48.09,50.47,38.3,74.21,88.09,74.21,88.09,0,0,42.13,71.86,79.66,21.38,22.76-30.61,27.92-81.48,3.83-118.65-15.66-24.17-38.08-34.25-54.67-41.72-49.62-22.34-97.68-15.75-121.92-10.37Z"/>
    <g id="Seeds">
      <path id="Seed" class="cls-5" d="M134.86,506.24c-4.21,4.33-7.87,7.62-10.49,9.87-4.18,3.59-6.31,5.04-8.23,8.51-1.07,1.93-3.12,5.65-1.96,9.87.2.74,1.23,4.45,4.68,5.96,3.94,1.72,7.89-.82,8.74-1.37,5.06-3.26,5.49-9.46,5.54-10.27.58-7.53,1.15-15.05,1.73-22.58Z"/>
      <path id="Seed-2" data-name="Seed" class="cls-5" d="M111.8,484.16c-4.96-3.44-8.81-6.51-11.47-8.73-4.23-3.53-6.01-5.39-9.75-6.71-2.08-.74-6.09-2.15-10.06-.3-.7.32-4.19,1.95-5.11,5.6-1.05,4.17,2.11,7.65,2.79,8.4,4.05,4.46,10.23,3.86,11.04,3.77,7.52-.67,15.04-1.34,22.55-2.02Z"/>
      <path id="Seed-3" data-name="Seed" class="cls-5" d="M157.94,528.92c-1.85,5.75-3.66,10.32-5.01,13.51-2.14,5.07-3.41,7.32-3.58,11.28-.1,2.21-.28,6.45,2.64,9.71.51.57,3.08,3.44,6.84,3.25,4.3-.21,6.7-4.25,7.22-5.11,3.08-5.17.71-10.91.39-11.66-2.83-7-5.67-13.99-8.5-20.99Z"/>
      <path id="Seed-4" data-name="Seed" class="cls-5" d="M216.44,472.07c4.47,4.06,7.89,7.6,10.24,10.14,3.73,4.05,5.26,6.13,8.8,7.92,1.97,1,5.76,2.92,9.94,1.61.73-.23,4.41-1.39,5.79-4.89,1.58-4-1.1-7.86-1.68-8.69-3.43-4.94-9.65-5.15-10.46-5.17-7.54-.31-15.08-.61-22.62-.92Z"/>
      <path id="Seed-5" data-name="Seed" class="cls-5" d="M210.71,453.57c4.45-4.09,8.28-7.18,11.02-9.28,4.37-3.35,6.57-4.69,8.68-8.05,1.17-1.87,3.43-5.47,2.49-9.75-.16-.75-.98-4.51-4.35-6.2-3.84-1.93-7.93.39-8.8.89-5.23,2.97-6,9.14-6.09,9.95-.99,7.48-1.97,14.97-2.96,22.45Z"/>
    </g>
  </g>
</svg>