<svg width="488" height="546" viewBox="0 0 488 546" fill="none" xmlns="http://www.w3.org/2000/svg">
<path d="M43.4797 64.7844C43.4797 64.7844 138.969 111.896 100.857 150.826C100.857 150.826 40.5518 199.618 33.0229 213.831C25.494 228.043 -16.4071 264.625 7.06538 352.57C30.5378 440.514 54.9452 470.793 54.9452 470.793C54.9452 470.793 126.642 576.386 288.095 532.859L298.158 545.168L313.241 534.441L328.003 542.326L336.492 525.913L352.829 523.713L350.934 512.986C350.934 512.986 505.055 444.197 486.208 304.989C467.361 165.78 405.383 130.854 405.383 130.854C405.383 130.854 364.762 87.1043 258.816 93.4072C258.816 93.4072 174.227 112.341 221.122 1.68079C221.122 1.68079 188.03 13.471 175.9 62.2633C175.9 62.2633 136.951 0.840393 123.96 0C123.96 0 112.224 45.8509 123.124 83.2978C123.124 83.2978 82.9202 47.5317 43.5535 64.7844H43.4797Z" fill="#AF2832"/>
<path d="M406.983 186.369C406.983 186.369 377.679 147.662 322.811 151.444C322.811 151.444 291.392 153.545 321.138 182.588C321.138 182.588 379.352 220.455 394.016 259.583C407.622 284.547 417.71 296.14 424.279 294.409C427.281 293.618 429.569 289.985 431.095 283.583C432.842 276.909 434.17 269.272 434.392 260.818C435.4 224.41 415.889 197.245 407.007 186.394L406.983 186.369Z" fill="white"/>
<path d="M95.0255 155.597C95.0255 155.597 -28.3402 228.464 7.04074 352.57C42.4216 476.676 77.4827 494.844 77.4827 494.844C77.4827 494.844 168.715 569.515 266.222 537.976C248.974 536.542 226.117 532.538 201.291 521.86C147.703 498.774 118.104 458.707 105.901 439.674C91.3349 415.674 58.8573 354.671 63.1876 272.584C65.9679 219.813 82.8956 179.227 95.0501 155.621L95.0255 155.597Z" fill="#8C2327"/>
</svg>
