<svg width="777" height="1034" viewBox="0 0 777 1034" fill="none" xmlns="http://www.w3.org/2000/svg">
<g opacity="0.75">
<path d="M510.48 705.5C510.48 705.5 355.766 664.222 403.629 870.092C451.492 1075.96 643.809 1028.2 643.809 1028.2C643.809 1028.2 750.002 1010.49 774.782 870.092C774.782 870.092 793.671 760.364 703.387 697.841C703.387 697.841 661.485 668.347 612.548 694.306C563.61 720.265 551.341 713.16 510.48 705.5Z" fill="#6D1031"/>
<path d="M559.14 726.122C551.272 724.944 541.152 722.899 529.715 719.087C512.109 713.23 510.306 709.486 495.854 706.471C495.854 706.471 492.215 705.709 465.528 703.109C465.528 703.109 401.029 697.425 394.444 795.647C387.859 893.868 456.448 976.666 456.448 976.666C456.448 976.666 515.609 1046.5 624.054 1031.46C732.534 1016.42 763.207 913.865 763.207 913.865C763.207 913.865 784.175 857.199 773.153 809.163C772.46 819.179 769.688 838.172 756.829 856.853C732.222 892.655 691.118 897.749 684.29 898.477C674.967 898.477 634.486 897.472 601.284 865.864C577.127 842.851 569.676 815.887 567.284 804.9C564.997 795.785 562.917 785.63 561.427 774.609C558.966 756.517 558.551 740.124 559.105 726.088L559.14 726.122Z" fill="#521323"/>
<path d="M474.435 702.313C461.404 702.521 442.168 705.016 425.706 717.458C377.878 753.572 396.281 841.049 401.272 864.824C406.297 888.739 421.027 958.748 486.739 1001.97C526.076 1027.82 565.655 1032.22 585.41 1033.02C585.41 1033.02 722.83 1044.15 764.142 884.857C764.142 884.857 706.921 1002.24 596.016 943.256C485.11 884.268 496.304 726.123 496.304 726.123C496.304 726.123 495.611 706.784 474.435 702.313Z" fill="#050606"/>
<path d="M704.877 723.8C704.877 723.8 677.462 652.716 602.219 716.417C602.219 716.417 578.028 750.937 609.879 803.132C641.729 855.327 706.02 828.779 706.02 828.779C706.02 828.779 744.075 811.381 732.256 767.434C732.256 767.434 718.081 733.227 704.842 723.765L704.877 723.8Z" fill="#C38184"/>
<path d="M680.685 754.646C695.536 747.547 703.025 732.272 697.411 720.528C691.798 708.785 675.207 705.021 660.356 712.121C645.504 719.221 638.015 734.496 643.629 746.239C649.243 757.982 665.833 761.746 680.685 754.646Z" fill="#F2E0C9"/>
<path d="M512.559 719.087C560.907 732.43 583.123 729.519 594.248 723.35C594.768 723.072 602.843 718.289 614.315 713.229C623.742 709.07 632.649 705.916 640.69 703.525C644.779 702.659 649.389 701.931 654.518 701.584C665.401 700.891 674.759 702.208 681.829 703.837C681.829 703.837 651.746 702.243 631.089 712.571C610.433 722.899 599.689 728.34 599.689 728.34C599.689 728.34 580.662 739.258 555.604 735.133C555.604 735.133 540.563 732.049 533.319 728.652C530.13 726.954 526.699 725.256 523.095 723.592C519.456 721.894 515.921 720.404 512.524 719.087H512.559Z" fill="#F3E1C9"/>
<path d="M345.888 25.3351C345.888 25.3351 372.228 35.5246 406.955 74.3416C470.414 145.287 497.725 223.857 510.86 270.645C514.5 283.642 516.995 294.317 518.451 300.832C527.878 341.972 536.334 386.611 542.919 434.439C553.351 510.133 557.233 579.899 557.372 642.076C557.372 644.398 557.372 648.245 557.372 650.567C557.198 683.007 556.193 689.142 555.327 693.093C554.322 697.806 552.485 704.461 548.811 712.224C553.213 713.021 559.486 713.61 566.903 712.64C576.226 711.427 583.365 708.273 587.767 705.882C585.514 699.089 583.4 691.915 581.494 684.428C574.597 657.395 571.824 632.337 571.235 610.537C571.235 610.537 561.808 474.262 555.292 451.249C553.074 435.618 550.509 418.67 547.529 400.578C546.489 394.271 542.989 373.198 538.24 348.106C527.982 293.831 522.54 264.961 513.668 234.185C498.106 180.084 478.039 140.92 472.979 131.32C441.094 71.0491 402.623 28.0384 372.991 0L345.853 25.3697L345.888 25.3351Z" fill="#070908"/>
<path d="M305.788 544.479C305.788 544.479 265.689 523.234 231.447 522.644C197.239 522.055 165.388 537.409 165.388 537.409C165.388 537.409 137.835 549.574 114.58 580.662C87.9275 616.291 66.8901 676.734 99.33 772.183C99.33 772.183 167.745 949.736 358.885 876.608C371.361 870.681 429.864 841.256 456.932 770.796C484.381 699.401 459.705 637.605 454.402 625.128C451.006 616.256 444.455 602.774 432.013 589.95C410.941 568.289 386.126 562.085 375.971 560.11C375.971 560.11 316.428 549.539 305.754 544.479H305.788Z" fill="#A02738"/>
<path d="M115.411 579.518C104.771 596.084 85.5706 631.124 82.7979 679.264C78.9856 745.738 109.034 793.774 119.674 809.232C127.68 821.015 170.344 881.078 248.533 892.827C289.88 899.031 323.637 889.118 341.417 882.325C346.338 879.795 352.022 876.226 357.775 871.27C370.46 860.352 377.184 847.945 380.65 840.008C380.65 840.008 254.39 840.597 237.893 699.608C237.893 699.608 227.877 603.466 268.565 560.109C268.565 560.109 165.111 546.731 115.377 579.518H115.411Z" fill="#30141F"/>
<path d="M246.8 533.699C246.8 533.699 192.248 525.346 147.886 560.316C100.924 597.366 95.4831 653.235 93.7155 674.376C86.5066 759.6 139.88 840.943 207.29 874.215C221.257 881.112 233.804 884.959 242.849 887.177C255.43 889.811 273.279 892.029 294.317 889.464C330.188 885.132 355.835 869.363 368.589 860.144C368.589 860.144 238.448 872.551 184.901 757.07C131.354 641.59 197.274 560.039 197.274 560.039C197.274 560.039 216.786 535.224 246.835 533.629L246.8 533.699Z" fill="#130D11"/>
<path d="M291.474 596.295C291.474 596.295 271.789 592.967 267.595 588.115C266.521 587.318 265.273 586.486 263.852 585.724C259.97 583.644 256.296 582.847 253.593 582.535C251.306 587.63 248.394 594.7 245.691 603.4C243.092 611.752 237.789 630.814 237.096 660.655C236.541 686.163 235.952 711.949 247.493 742.448C252.692 756.173 263.297 778.7 285.271 801.367C294.212 809.061 307.244 818.626 324.642 826.425C346.893 836.441 367.064 839.387 380.407 840.288C380.407 840.288 403.42 797.381 400.751 777.002C400.751 777.002 322.251 786.048 285.271 695.59C285.271 695.59 268.011 630.987 291.474 596.26V596.295Z" fill="#71112B"/>
<path d="M198.417 582.812C198.417 582.812 203.443 540.321 257.717 550.65C257.717 550.65 288.112 555.086 305.788 544.446C305.788 544.446 313.967 548.224 371.673 559.314C371.673 559.314 376.317 558.552 402.692 568.914C402.692 568.914 376.872 558.309 341.174 582.812C305.476 607.316 270.368 589.883 270.368 589.883C270.368 589.883 232.036 569.538 198.383 582.812H198.417Z" fill="#84354B"/>
<path d="M258.619 563.334C270.125 562.26 279.275 562.988 285.617 563.889C292.549 564.859 295.668 565.968 307.833 567.667C317.78 569.018 322.078 569.157 325.405 569.088C332.648 568.984 337.327 567.979 341.452 567.32C348.591 566.176 359.162 565.31 373.198 566.835C369.559 567.701 363.945 569.122 357.152 571.167C342.041 575.707 339.441 577.822 328.628 580.421C320.657 582.327 313.587 583.783 304.298 583.194C299.03 582.882 293.312 581.53 285.548 578.48C281.25 576.227 276.884 573.87 272.413 571.375C267.63 568.672 263.02 566.003 258.584 563.3L258.619 563.334Z" fill="#30141F"/>
<path d="M322.078 591.961C322.078 591.961 303.05 597.853 292.341 595.496C292.341 595.496 253.385 665.124 307.209 730.87C307.209 730.87 349.735 784.244 402.415 777.174C402.415 777.174 412.535 700.198 375.035 648.869C337.535 597.541 322.078 591.926 322.078 591.926V591.961Z" fill="#962930"/>
<path d="M320.692 591.962C320.692 591.962 336.149 588.427 357.845 571.895C379.541 555.363 415.204 578.376 415.204 578.376C415.204 578.376 466.914 618.475 462.166 697.842C462.166 697.842 461.854 762.133 400.96 777.175C400.96 777.175 421.477 665.68 320.726 591.927L320.692 591.962Z" fill="#D35740"/>
<path d="M367.341 662.7C386.654 662.7 402.311 647.044 402.311 627.73C402.311 608.417 386.654 592.76 367.341 592.76C348.028 592.76 332.371 608.417 332.371 627.73C332.371 647.044 348.028 662.7 367.341 662.7Z" fill="#F0BFA1"/>
<path d="M339.164 607.072C338.471 607.973 326.722 623.431 333.342 641.314C338.922 656.391 353.27 661.485 357.325 662.906C360.271 663.946 364.811 665.506 370.599 664.501C375.555 663.669 379.125 661.382 381.031 659.891C377.843 653.757 373.996 647.206 369.282 640.448C359.266 626.065 348.522 615.113 339.164 607.038V607.072Z" fill="#B56B60"/>
<path d="M276.433 565.273C276.433 565.273 302.253 583.399 324.816 570.887C324.816 570.887 308.284 571.199 323.187 539.764C338.09 508.329 406.955 351.883 429.968 94.373L412.258 80.1979C412.258 80.1979 391.914 396.107 305.199 547.424C305.199 547.424 294.143 564.961 276.433 565.273Z" fill="#070908"/>
<path d="M165.389 73.7157C53.3044 131.525 37.9509 163.376 1.3866 301.419L394.444 73.7157C394.444 73.7157 277.473 15.9059 165.389 73.7157Z" fill="#2C1328"/>
<path d="M48.5213 302.738C77.2529 306.447 118.392 308.041 118.392 308.041C118.392 308.041 220.599 308.214 253.524 280.107C253.524 280.107 319.201 246.558 355.488 174.815C391.74 103.073 394.478 74.0295 394.478 74.0295L0 302.461C0 302.461 19.7898 299.03 48.5213 302.738Z" fill="#937B8A"/>
<path d="M625.891 47.8625C598.164 29.4591 570.923 25.6813 557.683 24.7109C541.498 24.191 514.846 25.5427 485.491 38.0543C469.34 44.9166 456.69 53.3385 447.367 60.686L680.373 117.317C675.937 105.222 661.831 71.7419 625.856 47.8279L625.891 47.8625Z" fill="#643460"/>
<path d="M447.367 60.7227C447.367 60.7227 478.039 112.918 516.683 130.94C555.327 148.928 591.024 144.803 591.024 144.803C598.095 143.763 606.066 142.169 614.661 139.708C624.885 136.763 633.758 133.227 641.175 129.762C646.027 127.89 651.087 126.088 656.355 124.355C664.707 121.582 672.748 119.295 680.408 117.389L447.401 60.7573L447.367 60.7227Z" fill="#070908"/>
</g>
</svg>
