<?xml version="1.0" encoding="UTF-8"?>
<svg id="Layer_2" data-name="Layer 2" xmlns="http://www.w3.org/2000/svg" viewBox="0 0 304.99 192.38">
  <defs>
    <style>
      .cls-1 {
        fill: #801323;
      }
    </style>
  </defs>
  <g id="Layer_2-2" data-name="Layer 2">
    <path class="cls-1" d="M74.77,28.89l-38.52,69.33,11.85,15.11s17.19-15.41,28.44,7.41c0,0,8.89-13.63,21.04-9.19,12.15,4.44,11.7,20.74,11.7,20.74,0,0,8.15-.74,13.48,6.22,5.33,6.96,4.3,14.22,4.3,14.22,0,0,11.7-.3,16.74,10.52,5.04,10.81-2.52,19.85-2.52,19.85,0,0,11.85,6.52,30.96,6.07,1.03-.09,2.96-.4,4.91-1.69,3.17-2.09,4.16-5.26,4.41-6.17.07-.59.08-1.52-.36-2.46-.64-1.34-1.87-1.97-2.34-2.21-2.25-1.16-10.88-5.86-22.77-12.22-.28-.48-1.08-2.19-.56-4,1-3.44,8.78,1.56,8.78,1.56l24,11.44s11.89,4.67,16.78-2.56,1.44-9.22,1.44-9.22l-37.11-22.44s-2.67-1.78-.44-4c2.22-2.22,5.67.44,5.67.44l36,20.67s8.33,3.22,15.11-2.89c0,0,5.22-8.67.44-12.56l-43.67-26.56s-2.33-1.56-.89-3.56c1.44-2,4.67-.22,4.67-.22l45.56,27s8.78,4.22,14.11-1.33c5.33-5.56,2.78-11.44,2.78-11.44,0,0,.56-1.11-6.33-7.67,0,0-68-52.56-93.11-61.33l-12,3.22s-16.04,23.22-34.11,23.81c-18.07.59-15.41-10.67-15.41-10.67,0,0,1.19-9.78,18.07-32.89,0,0-18.96-.59-31.11-10.37Z"/>
    <path class="cls-1" d="M230.99,28.89s-11.78,4.44-28,0-34.67-4.89-34.67-4.89c0,0-24-.02-40.44,3.43,0,0-6.89.57-11.11,7.9l-19.78,28.89s-4.44,7.33-2.22,10.67,9.56,2,9.56,2c0,0,16.44-2.44,28.44-22.67l15.78-4.67s64.67,32.22,99.33,64.22c0,0,7.33-1.33,21.11-17.33l-38-67.56Z"/>
    <path class="cls-1" d="M254.55,0s-22.67,12.44-23.33,15.33,49.33,88.89,49.33,88.89c0,0,18.89-6.67,24.44-15.11,0,0-40.67-84.22-50.44-89.11Z"/>
    <path class="cls-1" d="M0,90.28s22.31,13.08,25.13,12.17S76.16,14.52,76.16,14.52c0,0-15.41-12.8-25.51-13.24C50.66,1.28-.81,79.38,0,90.28Z"/>
    <rect class="cls-1" x="47.54" y="114.17" width="21.61" height="28.84" rx="9.67" ry="9.67" transform="translate(84.63 -10.15) rotate(35.13)"/>
    <rect class="cls-1" x="73.22" y="115.03" width="21.61" height="51.3" rx="9.67" ry="9.67" transform="translate(96.27 -22.72) rotate(35.13)"/>
    <rect class="cls-1" x="93.28" y="137.17" width="21.61" height="44.09" rx="9.67" ry="9.67" transform="translate(110.59 -30.89) rotate(35.13)"/>
    <rect class="cls-1" x="114.79" y="158.87" width="21.61" height="34.21" rx="9.67" ry="9.67" transform="translate(124.15 -40.22) rotate(35.13)"/>
  </g>
</svg>