<?xml version="1.0" encoding="UTF-8"?>
<svg id="Layer_2" data-name="Layer 2" xmlns="http://www.w3.org/2000/svg" viewBox="0 0 360.44 360.44">
  <defs>
    <style>
      .cls-1 {
        fill: #800020;
      }
    </style>
  </defs>
  <g id="Pinterest_Icon" data-name="Pinterest Icon">
    <path class="cls-1" d="M180.22,0C80.69,0,0,80.69,0,180.22c0,73.79,44.35,137.21,107.85,165.08.34-10.3,1.25-25.7,3.93-44.2,0,0,22.81-94.98,22.81-94.98,0,0-18.38-45.62,13.96-71.49,0,0,33.36-18.04,38.47,25.19,0,0,.34,11.23-8.85,37.45-9.19,26.21-7.15,38.81-7.15,38.81,0,0,8.17,27.23,41.53,17.7,33.36-9.53,41.53-64.34,41.53-64.34,0,0,13.96-49.7-14.3-76.6s-70.47-20.77-70.47-20.77c0,0-64.34,6.13-74.21,68.43,0,0-7.49,26.21,8.85,49.02,0,0,6.64,6.13,4.6,13.45,0,0-1.53,2.38-3.74,12.26-2.21,9.87-9.02,6.3-9.02,6.3,0,0-40.09-18.55-37.02-71.15s40.09-78.9,40.09-78.9c0,0,42.13-39.83,105.96-29.1,63.83,10.72,84.77,56.94,84.77,56.94,0,0,30.55,55.83-11.32,125.28,0,0-54.47,80-118.47,20.09l-12.6,48.34c-1.28,4.81-3,10.12-5.36,15.74-4.15,9.88-9.06,17.89-13.53,24.07,16.45,4.94,33.88,7.61,51.93,7.61,99.53,0,180.22-80.69,180.22-180.22S279.75,0,180.22,0Z"/>
  </g>
</svg>