<svg width="1730" height="1126" viewBox="0 0 1730 1126" fill="none" xmlns="http://www.w3.org/2000/svg">
<path d="M55.4647 538.287L3.78822 557.249C3.78822 557.249 162.658 953.959 563.97 1079.59C836.808 1165.03 1072.57 1088.56 1136.91 1066.99C1400.84 978.427 1539.42 802.509 1565.67 768.041C1812.85 443.857 1708.08 64.9554 1692.28 11.473L1646.34 26.9619C1646.34 26.9619 1879.21 732.135 1128.83 1021.52C1079.36 1038.39 764.4 1139.72 443.359 973.897C172.958 834.053 77.3124 597.078 55.4647 538.287Z" fill="#7A1236"/>
<path d="M48.8474 546.086L1660.62 18.1643C1660.62 18.1643 1895.27 748.398 1135.24 1027.54C1135.24 1027.54 391.118 1290.04 48.8466 546.203L48.8474 546.086Z" fill="#D8302A"/>
<path d="M860.465 279.824L159.266 523.897C159.266 523.897 190.92 660.125 348.266 798.613L860.588 279.708L860.465 279.824Z" fill="#D96B5F"/>
<path d="M860.464 279.826L383.701 825.777C383.701 825.777 550.489 952.39 672.949 965.163L860.464 279.709L860.464 279.826Z" fill="#D96B5F"/>
<path d="M860.464 279.821L719.449 974.488C719.449 974.488 945.808 1011.85 1057.91 957.363L860.464 279.821Z" fill="#D96B5F"/>
<path d="M860.464 279.822L1138.81 931.111C1138.81 931.111 1311.51 868.026 1413.26 744.646L860.464 279.822Z" fill="#D96B5F"/>
<path d="M860.464 279.826L1444.48 711.972C1444.48 711.972 1563.3 581.334 1587.67 430.506L860.465 279.709L860.464 279.826Z" fill="#D96B5F"/>
<path d="M860.464 279.824L1597.21 385.855C1597.21 385.855 1632.71 188.868 1574.63 59.9518L860.464 279.824Z" fill="#D96B5F"/>
</svg>
