<?xml version="1.0" encoding="UTF-8"?>
<svg id="Layer_5" data-name="Layer 5" xmlns="http://www.w3.org/2000/svg" viewBox="0 0 435 435">
  <defs>
    <style>
      .cls-1 {
        fill: #9b2220;
      }
    </style>
  </defs>
  <path class="cls-1" d="M321.03,0H115.79c-23.6,6.55-24.63,23.44-24.63,23.44v23.44h-.01l-.41,333.79v27.16s1.03,19.57,24.67,27.16h205.57s17.99-8.18,23.13-28.88V24.93c-5.13-17.87-23.09-24.93-23.09-24.93ZM185.22,21.36h64.34s5.36,2.81,0,6.64h-64.34s-4.85-4.34,0-6.64ZM220.97,422.39c-9.73,0-17.62-7.89-17.62-17.62s7.89-17.62,17.62-17.62,17.62,7.89,17.62,17.62-7.89,17.62-17.62,17.62ZM323.92,380.68H111.36V46.89h212.95l-.4,333.79Z"/>
</svg>