<?xml version="1.0" encoding="UTF-8"?>
<svg id="Layer_2" data-name="Layer 2" xmlns="http://www.w3.org/2000/svg" viewBox="0 0 561.65 585.65">
  <defs>
    <style>
      .cls-1 {
        fill: #eb050a;
      }

      .cls-2 {
        fill: #e7bac4;
      }

      .cls-3 {
        fill: #dacb71;
      }

      .cls-4 {
        fill: #2d070b;
      }
    </style>
  </defs>
  <g id="Berries">
    <circle class="cls-1" cx="70.47" cy="515.18" r="70.47"/>
    <circle class="cls-1" cx="193.92" cy="480" r="70.47"/>
    <circle class="cls-1" cx="297.74" cy="444.71" r="70.47"/>
    <circle class="cls-1" cx="211.4" cy="347.58" r="70.47"/>
    <circle class="cls-1" cx="109.13" cy="409.53" r="70.47"/>
    <circle class="cls-1" cx="211.4" cy="242.78" r="70.47"/>
    <circle class="cls-1" cx="264.39" cy="161.25" r="70.47"/>
    <circle class="cls-1" cx="362.48" cy="172.31" r="70.47"/>
    <circle class="cls-1" cx="375.93" cy="339.06" r="70.47"/>
    <circle class="cls-1" cx="491.18" cy="281.67" r="70.47"/>
    <circle class="cls-1" cx="438.67" cy="358.09" r="70.47"/>
  </g>
  <g id="Berry_Ends" data-name="Berry Ends">
    <path class="cls-4" d="M40.34,537.65s-7.66-27.06-20.94-8.68,8.17,34.21,8.17,34.21c0,0,22.47,9.7,18.89-4.6,0,0-4.97,9.19-15.51,0,0,0,13.46-9.19-6.96-16.34,0,0-1.53-12.26,16.34-4.6Z"/>
    <path class="cls-4" d="M167.49,480.97s-16.85-14.81-17.87,15.32,30.13,26.28,30.13,26.28c0,0,27.57-5.86,3.57-35.98,0,0,10.72,42.38-18.89,22.98,0,0,14.81-1.53,4.09-12.77,0,0-11.54-7.36-8.17,8.17,0,0-12.77-25.02,7.15-24Z"/>
    <path class="cls-4" d="M329.87,484.54s-24-18.89-39.83,7.66c0,0-3.74,20.94,24.85,12.43,0,0,14.3-6.47,6.13-9.53,0,0-.8-2.16-14.64,2.72,0,0-18.04-12.6,23.49-13.28Z"/>
    <path class="cls-4" d="M59.23,379.69s-22.13,6.81-13.62,23.49,7.83,14.98,7.83,14.98c0,0,8.85,9.87,15.32-4.09,0,0,2.04-2.72,3.4-11.23s0-2.22,0-2.22c0,0-5.45,11.07-10.21,12.77s-10.55-14.3-10.55-14.3c0,0-2.38-10.21,7.83-19.4Z"/>
    <ellipse class="cls-4" cx="59.74" cy="397.9" rx="5.28" ry="8" transform="translate(-39.68 8.02) rotate(-5.77)"/>
    <ellipse class="cls-4" cx="182.8" cy="362.66" rx="6.62" ry="8" transform="translate(-202.9 235.48) rotate(-45)"/>
    <path class="cls-4" d="M175.46,344.97s-19.54,9.19-6.95,29.28,31.32,9.19,31.32,9.19c0,0,15.32-15.32,3.74-30.98,0,0-4.77-10.21-15.66-9.19,0,0,17.72,29.91,2.22,34.04s-23.05-22.81-14.68-32.34Z"/>
    <path class="cls-4" d="M387.74,355.32s-28.94,13.14-4.77,25.74c0,0,30.3,6.47,32.34-27.23,0,0,1.36-10.55-14.98-4.77,0,0,11.57,2.04,7.15,11.23,0,0-2.8-4.45-13.14,2.37s-5.92,11.25-5.92,11.25c0,0-13.96,2.99-.68-18.59Z"/>
    <path class="cls-4" d="M519.47,306.58s-21.65,23.27,5.51,25.59c0,0,30.45-5.69,19.37-37.58,0,0-2.81-10.26-15.66,1.37,0,0,11.47-2.57,10.92,7.62,0,0-4.29-3.03-11.22,7.25-6.92,10.28-1.14,12.66-1.14,12.66,0,0-11.73,8.14-7.78-16.89Z"/>
    <path class="cls-4" d="M178.04,213.9s-3.35,35.96-13.76,28.87c0,0-5.59,1.09,0-8.11,0,0,6.27-11.23-5.98-11.23s-10.89,17.7-10.89,17.7c0,0,1.02,21.11,21.11,13.62s9.53-40.85,9.53-40.85Z"/>
  </g>
  <g id="Berry_Highlights" data-name="Berry Highlights">
    <path class="cls-2" d="M16.68,510.41s-1.36-31.32,25.19-46.3,53.45-7.83,61.96,2.04c0,0-34.63-12.26-56.98,5.11,0,0-16.9,8.17-30.17,39.15Z"/>
    <path class="cls-2" d="M119.83,540.71c-1.43,4.83-4.75,13.23-12.6,20.09-18.84,16.45-45.37,7.88-46.98,7.33,1.18.12,2.39.22,3.63.27,11.6.49,21.7-2.6,29.57-6.3,3.19-1.3,6.89-3.12,10.72-5.72,7.69-5.2,12.66-11.26,15.66-15.66Z"/>
    <path class="cls-2" d="M225.64,520.35c-2.8,4.19-8.44,11.24-17.96,15.47-22.86,10.16-45.68-5.86-47.06-6.86,1.09.47,2.22.91,3.39,1.33,10.94,3.89,21.5,3.92,30.12,2.7,3.44-.3,7.5-.95,11.93-2.3,8.88-2.7,15.42-7.03,19.58-10.34Z"/>
    <path class="cls-2" d="M278.73,488.14c-4.92-1.07-13.55-3.75-20.96-11.07-17.8-17.57-11.22-44.66-10.79-46.31-.04,1.19-.04,2.4,0,3.64.37,11.61,4.2,21.45,8.48,29.02,1.53,3.09,3.63,6.63,6.5,10.27,5.76,7.28,12.17,11.79,16.78,14.46Z"/>
    <path class="cls-2" d="M343.97,415.45c3.52,3.61,9.24,10.6,11.39,20.79,5.18,24.47-15.24,43.46-16.51,44.59,3.91-9.07,5.92-17.13,7.02-23.19.83-4.56,2.11-11.82,1.65-21.45-.41-8.57-2.03-15.66-3.56-20.75Z"/>
    <path class="cls-2" d="M200.81,294.31c4.65-1.94,13.25-4.69,23.52-2.94,24.66,4.19,34.8,30.16,35.39,31.76-6.99-6.97-13.75-11.81-18.98-15.06-3.93-2.45-10.22-6.31-19.33-9.43-8.12-2.78-15.31-3.88-20.6-4.33Z"/>
    <path class="cls-2" d="M374.54,392.07s-31.29,1.87-46.7-24.44c-15.41-26.31-8.7-53.31,1.04-61.98,0,0-11.69,34.83,6.03,56.89,0,0,8.44,16.76,39.63,29.53Z"/>
    <path class="cls-2" d="M470.35,237.41c3.38-2.23,11.46-6.9,22.62-7.1,17.66-.31,28.97,10.81,30.6,12.46,10.21,10.37,11.63,22.75,11.91,26.28-2.35-3.91-6.23-9.49-12.26-14.98-5.09-4.63-15.87-13-31.84-16.09-4.74-.91-12.06-1.77-21.05-.58Z"/>
    <path class="cls-2" d="M451.4,319.1s1.81,13.96,18.95,19.4,30.76,1.7,30.76,1.7c0,0-8.85-.75-26.21-8.03s-23.49-13.07-23.49-13.07Z"/>
    <path class="cls-2" d="M143.68,408.34s-14.01-.25-20.77,11.27-4.1,21.57-4.1,21.57c0,0,1.44-6.18,10.03-17.66,8.6-11.48,14.83-15.18,14.83-15.18Z"/>
    <path class="cls-2" d="M486.43,368.85c-.18,5.04-1.29,14-7.18,22.6-14.13,20.64-41.96,18.97-43.66,18.84,9.25-3.43,16.48-7.55,21.62-10.93,3.87-2.55,10.01-6.64,16.66-13.61,5.92-6.21,9.93-12.28,12.56-16.9Z"/>
    <path class="cls-2" d="M224.34,160.12s26.55,6.47,43.57,29.28c0,0,3.74-10.89-15.32-23.49-19.06-12.6-28.26-5.79-28.26-5.79Z"/>
  </g>
  <g id="Berry_Stems" data-name="Berry Stems">
    <path class="cls-3" d="M490.21.97s-45.96-5.62-32.68,10.21c0,0,.51,30-5.11,65.74-3.08,19.63-12.58,60.69-41.87,100.21-19.55,26.37-45.93,48.83-73.79,72.54-6.43,5.47-17.79,14.92-31.3,29.84-13.96,15.43-23.73,29.53-29.81,39.07,1.16,2.4,2.66,5.97,3.76,10.46,1.92,7.85.95,11.83,2.19,12.26,2.94,1.02,10.62-20.6,22.75-39.58,11.06-17.29,21.01-28.82,44.42-45.96,16.51-12.09,33.02-24.17,49.53-36.26,0,0,45.96-42.89,67.4-94.98C487.15,72.46,490.21.97,490.21.97Z"/>
    <path class="cls-3" d="M424.63,190.74c.45,4.54,1.51,10.39,4.01,16.81,4.2,10.81,10.5,18.17,14.73,22.35,3.02-2.44,6.04-4.89,9.07-7.33,0,0-19.59-23.59-10.3-55.2l-17.49,23.36Z"/>
    <path class="cls-3" d="M298.58,288.34c-12.14,3.45-24.28,6.91-36.42,10.36,3.12,4.04,6.25,8.07,9.37,12.11l14.44-6.01,12.61-16.47Z"/>
    <path class="cls-3" d="M360.4,247.26c-.41,3.25-.68,6.96-.65,11.07.03,4.46.42,8.47.95,11.92,3.6-.5,7.2-1.01,10.8-1.51-.86-2.89-1.62-6.57-1.75-10.86-.28-9.49,2.72-16.89,4.75-20.93l-14.09,10.31Z"/>
    <path class="cls-3" d="M314.82,269.56l-39.1,2.04c1.17-2.61,2.36-5.68,3.37-9.17,1.06-3.65,1.71-7.01,2.11-9.93,15.15,1.91,30.29,3.81,45.44,5.72l-11.82,11.35Z"/>
    <path class="cls-3" d="M429.77,151.33c-6.08,3.42-13.1,6.77-21.07,9.6-26.71,9.49-51.01,8.57-66.58,6.45,0,0-12.26-.8-20.77-6.59-8.51-5.79-6.81,15.66-6.81,15.66,0,0,4.47,11.85,9.53,0,9.21,2.88,21.49,5.65,36.09,6.13,23.72.78,42.72-4.87,54.29-9.38,2.79-1.81,7.42-5.37,11.07-11.38,2.42-3.99,3.62-7.76,4.24-10.49Z"/>
  </g>
</svg>